<svg width="38" height="38" viewBox="0 0 38 38" fill="none" xmlns="http://www.w3.org/2000/svg">
<path opacity="0.7" d="M28.5241 12.335C28.3347 11.8216 28.0325 11.357 27.6398 10.9756C27.2584 10.5829 26.794 10.2806 26.2804 10.0912C25.8638 9.9294 25.238 9.73682 24.0853 9.68435C22.8384 9.62749 22.4645 9.61523 19.3078 9.61523C16.1508 9.61523 15.7769 9.62717 14.5303 9.68404C13.3777 9.73682 12.7515 9.9294 12.3353 10.0912C11.8216 10.2806 11.357 10.5829 10.9759 10.9756C10.5832 11.357 10.2809 11.8213 10.0912 12.335C9.9294 12.7515 9.73682 13.3777 9.68435 14.5303C9.62749 15.7769 9.61523 16.1508 9.61523 19.3078C9.61523 22.4645 9.62749 22.8384 9.68435 24.0853C9.73682 25.238 9.9294 25.8638 10.0912 26.2804C10.2809 26.794 10.5829 27.2584 10.9756 27.6398C11.357 28.0325 11.8213 28.3347 12.335 28.5241C12.7515 28.6862 13.3777 28.8788 14.5303 28.9313C15.7769 28.9882 16.1505 29.0001 19.3075 29.0001C22.4649 29.0001 22.8387 28.9882 24.085 28.9313C25.2377 28.8788 25.8638 28.6862 26.2804 28.5241C27.3115 28.1264 28.1264 27.3115 28.5241 26.2804C28.6859 25.8638 28.8785 25.238 28.9313 24.0853C28.9882 22.8384 29.0001 22.4645 29.0001 19.3078C29.0001 16.1508 28.9882 15.7769 28.9313 14.5303C28.8788 13.3777 28.6862 12.7515 28.5241 12.335ZM19.3078 25.3784C15.9547 25.3784 13.2366 22.6606 13.2366 19.3075C13.2366 15.9544 15.9547 13.2366 19.3078 13.2366C22.6606 13.2366 25.3787 15.9544 25.3787 19.3075C25.3787 22.6606 22.6606 25.3784 19.3078 25.3784ZM25.6187 14.4153C24.8352 14.4153 24.2 13.7801 24.2 12.9966C24.2 12.2131 24.8352 11.5778 25.6187 11.5778C26.4023 11.5778 27.0375 12.2131 27.0375 12.9966C27.0372 13.7801 26.4023 14.4153 25.6187 14.4153Z" fill="black"/>
<path opacity="0.7" d="M23.2489 19.3071C23.2489 21.4836 21.4846 23.248 19.3081 23.248C17.1315 23.248 15.3672 21.4836 15.3672 19.3071C15.3672 17.1306 17.1315 15.3662 19.3081 15.3662C21.4846 15.3662 23.2489 17.1306 23.2489 19.3071Z" fill="black"/>
<rect opacity="0.7" x="0.5" y="0.5" width="37" height="37" rx="4.5" stroke="black"/>
</svg>
