<svg width="38" height="38" viewBox="0 0 38 38" fill="none" xmlns="http://www.w3.org/2000/svg">
<g opacity="0.7">
<path d="M29.8039 24.6436C29.7448 24.5401 29.379 23.7091 27.6189 22.0013C25.7762 20.2129 26.0238 20.5033 28.2432 17.411C29.5949 15.5277 30.1353 14.3776 29.9662 13.886C29.8053 13.4173 28.8111 13.541 28.8111 13.541L25.5053 13.5611C25.5053 13.5611 25.2606 13.5266 25.0777 13.6402C24.9003 13.7523 24.7862 14.0111 24.7862 14.0111C24.7862 14.0111 24.2623 15.4688 23.5637 16.708C22.091 19.323 21.5011 19.461 21.2604 19.2986C20.7007 18.9205 20.841 17.7776 20.841 16.9668C20.841 14.4323 21.2082 13.3756 20.1246 13.1025C19.7643 13.0119 19.5003 12.9515 18.5803 12.9415C17.4005 12.9285 16.4008 12.9458 15.8356 13.2347C15.4589 13.4274 15.1687 13.8572 15.3461 13.8817C15.5647 13.9119 16.0598 14.0211 16.3224 14.3949C16.6621 14.8765 16.6497 15.9604 16.6497 15.9604C16.6497 15.9604 16.845 18.9435 16.1945 19.3144C15.7476 19.5688 15.1357 19.0499 13.8225 16.6764C13.1501 15.4616 12.6413 14.1174 12.6413 14.1174C12.6413 14.1174 12.5436 13.8673 12.369 13.7336C12.1572 13.5711 11.8602 13.5194 11.8602 13.5194L8.71673 13.5395C8.71673 13.5395 8.24508 13.5539 8.07181 13.7681C7.9178 13.9593 8.05944 14.3532 8.05944 14.3532C8.05944 14.3532 10.5209 20.3725 13.3068 23.4073C15.8631 26.189 18.7646 26.0064 18.7646 26.0064H20.0792C20.0792 26.0064 20.4766 25.9604 20.6787 25.7319C20.8658 25.522 20.8589 25.1281 20.8589 25.1281C20.8589 25.1281 20.8328 23.2836 21.6523 23.0119C22.4595 22.7445 23.4963 24.7945 24.595 25.5838C25.4256 26.1804 26.0568 26.0496 26.0568 26.0496L28.9954 26.0064C28.9954 26.0064 30.5327 25.9072 29.8039 24.6436Z" fill="black"/>
</g>
<rect opacity="0.7" x="0.5" y="0.5" width="37" height="37" rx="4.5" stroke="black"/>
</svg>
