<svg width="38" height="38" viewBox="0 0 38 38" fill="none" xmlns="http://www.w3.org/2000/svg">
<g opacity="0.7">
<path d="M29.1075 12.895C28.5379 11.8335 27.9197 11.6383 26.661 11.564C25.4036 11.4746 22.2418 11.4375 19.5026 11.4375C16.7582 11.4375 13.5951 11.4746 12.339 11.5626C11.0829 11.6383 10.4634 11.8321 9.88856 12.895C9.30187 13.9551 9 15.7811 9 18.9959C9 18.9986 9 19 9 19C9 19.0027 9 19.0041 9 19.0041V19.0069C9 22.2079 9.30187 24.0476 9.88856 25.0968C10.4634 26.1582 11.0816 26.3507 12.3377 26.4401C13.5951 26.5171 16.7582 26.5625 19.5026 26.5625C22.2418 26.5625 25.4036 26.5171 26.6623 26.4415C27.921 26.3521 28.5392 26.1596 29.1088 25.0981C29.7008 24.049 30 22.2092 30 19.0082C30 19.0082 30 19.0041 30 19.0014C30 19.0014 30 18.9986 30 18.9973C30 15.7811 29.7008 13.9551 29.1075 12.895ZM16.875 23.125V14.875L23.4375 19L16.875 23.125Z" fill="black"/>
</g>
<rect opacity="0.7" x="0.5" y="0.5" width="37" height="37" rx="4.5" stroke="black"/>
</svg>
