<svg width="29" height="27" viewBox="0 0 29 27" fill="none" xmlns="http://www.w3.org/2000/svg">
<ellipse opacity="0.8" cx="14.6923" cy="13.5" rx="13.9596" ry="13.5" transform="rotate(-180 14.6923 13.5)" fill="white"/>
<ellipse cx="14.6923" cy="13.5" rx="8.78941" ry="8.5" transform="rotate(-180 14.6923 13.5)" fill="#CF8718"/>
<path d="M19.0586 10.2929C18.6765 9.90237 18.0554 9.90237 17.6734 10.2929L13.4677 14.5855L11.7112 12.7929C11.3292 12.4024 10.7081 12.4024 10.326 12.7929C9.94345 13.1834 9.94345 13.8164 10.326 14.2069L12.7751 16.707C12.9662 16.9025 13.217 17 13.4677 17C13.7185 17 13.9693 16.9025 14.1604 16.707L19.0586 11.7069C19.4412 11.3164 19.4412 10.6834 19.0586 10.2929Z" fill="white"/>
</svg>
