<svg width="30" height="22" viewBox="0 0 30 22" fill="none" xmlns="http://www.w3.org/2000/svg">
<path d="M15.1072 21C14.695 21 14.2976 20.8841 13.9879 20.6734C12.8183 19.8794 11.6906 19.1331 10.6957 18.4749L10.6906 18.4714C7.77365 16.5415 5.25477 14.8747 3.50218 13.2329C1.54305 11.3974 0.630524 9.65708 0.630524 7.75591C0.630524 5.90876 1.44629 4.20464 2.92741 2.95726C4.42619 1.69513 6.48273 1 8.71887 1C10.3902 1 11.9208 1.41025 13.268 2.21926C13.9479 2.62762 14.5642 3.1274 15.1072 3.71036C15.6504 3.1274 16.2665 2.62762 16.9466 2.21926C18.2938 1.41025 19.8244 1 21.4957 1C23.7317 1 25.7884 1.69513 27.2872 2.95726C28.7683 4.20464 29.5839 5.90876 29.5839 7.75591C29.5839 9.65708 28.6716 11.3974 26.7124 13.2327C24.9598 14.8747 22.4412 16.5413 19.5247 18.4711C18.528 19.1304 17.3986 19.8778 16.2263 20.6738C15.9168 20.8841 15.5192 21 15.1072 21ZM8.71887 2.31685C6.96208 2.31685 5.34821 2.86121 4.17414 3.84979C2.98263 4.85329 2.32635 6.24046 2.32635 7.75591C2.32635 9.35489 3.09175 10.7849 4.8079 12.3927C6.46661 13.9467 8.9338 15.5791 11.7904 17.4693L11.7957 17.4727C12.7944 18.1336 13.9265 18.8827 15.1048 19.6826C16.2901 18.8812 17.424 18.1308 18.4246 17.469C21.281 15.5788 23.748 13.9467 25.4067 12.3927C27.1226 10.7849 27.888 9.35489 27.888 7.75591C27.888 6.24046 27.2318 4.85329 26.0402 3.84979C24.8664 2.86121 23.2523 2.31685 21.4957 2.31685C20.2088 2.31685 19.0272 2.63448 17.9839 3.26083C17.0542 3.81926 16.4065 4.52519 16.0268 5.01914C15.8315 5.27315 15.4878 5.42476 15.1072 5.42476C14.7266 5.42476 14.3829 5.27315 14.1876 5.01914C13.8081 4.52519 13.1604 3.81926 12.2305 3.26083C11.1872 2.63448 10.0056 2.31685 8.71887 2.31685Z" fill="#9F767A" stroke="#9F767A" stroke-width="0.7"/>
</svg>
