<svg width="29" height="27" viewBox="0 0 29 27" fill="none" xmlns="http://www.w3.org/2000/svg">
<ellipse opacity="0.8" cx="14.6923" cy="13.5" rx="13.9596" ry="13.5" transform="rotate(-180 14.6923 13.5)" fill="white"/>
<path d="M14.6024 6.41068C14.7551 5.95634 15.3977 5.95634 15.5503 6.41068L17.0215 10.7893C17.0899 10.9928 17.2806 11.13 17.4954 11.13H22.2195C22.7079 11.13 22.9066 11.7583 22.507 12.0391L18.7142 14.704C18.5331 14.8313 18.4572 15.0625 18.5277 15.2723L19.9832 19.6043C20.1369 20.062 19.6168 20.4502 19.2217 20.1726L15.3638 17.462C15.1913 17.3408 14.9614 17.3408 14.7889 17.462L10.931 20.1726C10.5359 20.4502 10.0158 20.062 10.1696 19.6043L11.625 15.2723C11.6956 15.0625 11.6197 14.8313 11.4385 14.704L7.64576 12.0391C7.24614 11.7583 7.44481 11.13 7.93321 11.13H12.6573C12.8721 11.13 13.0629 10.9928 13.1313 10.7892L14.6024 6.41068Z" fill="#CF8718"/>
</svg>
